<svg width="240" height="61" viewBox="0 0 240 61" fill="none" xmlns="http://www.w3.org/2000/svg">
<path d="M51.5084 23.3053C50.9396 22.306 50.3196 21.3655 49.6778 20.4103C48.2046 18.2133 46.8481 16.2662 45.528 14.4586C44.8424 13.5181 44.1277 12.5409 43.3692 11.6151C42.6107 10.6892 41.7866 9.77078 40.9333 8.88905C40.0654 7.99262 39.0881 7.20641 38.1546 6.47898C37.6003 6.04547 37.1262 5.70012 36.6595 5.39152C36.1416 5.04618 35.6092 4.70818 35.0768 4.39222C34.0631 3.78236 32.9837 3.15046 31.8386 2.6655C31.5688 2.54794 31.2917 2.43772 31.0145 2.3422L30.3727 2.12177C30.2852 2.08503 30.1904 2.05564 30.0956 2.02625L30.0226 2.00421C28.9651 1.66621 27.8055 1.42373 26.4636 1.25473C25.3258 1.10778 24.1516 1.02695 22.8899 1.00491C21.5261 0.982868 20.3154 1.0343 19.1995 1.17391C17.8065 1.34291 16.5958 1.60008 15.5019 1.94542C14.9184 2.12912 14.3568 2.33486 13.8317 2.56264L13.7369 2.59937C13.4816 2.70224 13.2337 2.81246 12.9857 2.93002C12.7013 3.06963 12.4168 3.20923 12.1397 3.35619C11.1478 3.86318 10.1705 4.51714 9.06196 5.41356C8.85045 5.58991 8.64625 5.7736 8.44204 5.95729L8.3691 6.02343C8.15031 6.22916 7.93151 6.4349 7.72001 6.64798C7.33347 7.03741 6.93964 7.47828 6.46558 8.03671C5.72896 8.90374 5.02882 9.89569 4.24845 11.1742C3.94213 11.6738 3.66498 12.1882 3.40972 12.7172C3.16904 13.2242 2.88461 13.8341 2.62935 14.466C2.41056 15.0244 2.19176 15.6049 1.98026 16.2441C1.79793 16.7805 1.63747 17.3757 1.46972 18.1252C1.22905 19.1906 1.08318 20.3442 1.02484 21.777C0.966492 23.0702 1.01025 24.334 1.16341 25.5317C1.31657 26.7367 1.60101 27.9785 2.00943 29.2203C2.22822 29.8816 2.50537 30.4988 2.73146 30.9617C3.00131 31.5275 3.31491 32.0712 3.6504 32.5855C3.96401 33.0485 4.33596 33.5261 4.80273 34.0331C5.02882 34.2829 5.25491 34.5254 5.48829 34.7678C5.71438 35.003 5.96963 35.2087 6.21031 35.4071C6.6479 35.7598 7.15114 36.0831 7.78565 36.4284C8.36181 36.7444 8.95986 36.9869 9.5579 37.1558C10.1632 37.3248 10.805 37.4498 11.4541 37.5085C11.7677 37.5379 12.0814 37.5379 12.3731 37.5306C12.6721 37.5232 12.9784 37.5085 13.2774 37.4791C13.9411 37.413 14.5464 37.3028 15.1226 37.1411C15.6988 36.9721 16.2822 36.7517 16.9022 36.4725C17.4564 36.2153 18.0107 35.892 18.5504 35.4952C18.7838 35.3263 18.9807 35.172 19.1703 35.0103C19.3089 35.0911 19.4475 35.1646 19.5861 35.2381L19.7246 35.3116C19.9726 35.4365 20.2425 35.5614 20.5779 35.6936C21.1322 35.9067 21.7157 36.0831 22.3064 36.2006C23.0576 36.3549 23.6338 36.4358 24.261 36.4799C24.8736 36.5239 25.4936 36.5313 26.1062 36.5019C26.6605 36.4799 27.3023 36.4431 27.9368 36.2962C28.265 36.2227 28.5932 36.1418 28.9214 36.0463C29.2277 35.9582 29.5267 35.8479 29.8184 35.7377C30.0956 35.6275 30.38 35.5026 30.6863 35.341C30.9416 35.2087 31.2041 35.047 31.525 34.834C31.773 34.665 32.021 34.4739 32.32 34.2167C32.4513 34.1065 32.5826 33.989 32.7065 33.864L32.8086 33.7685C32.8889 33.6951 32.9618 33.6216 33.0347 33.5408L33.1295 33.4379C33.2244 33.3424 33.3119 33.2395 33.3994 33.1366L33.6838 32.7913C33.8589 32.5782 34.012 32.3504 34.1725 32.1226L34.2381 32.0271C34.4204 31.7626 34.5663 31.476 34.7341 31.1601C34.8799 30.8882 34.982 30.609 35.106 30.271C35.1352 30.1975 35.1571 30.1167 35.1789 30.0432L35.2227 29.9036C35.2373 29.8522 35.2519 29.8007 35.2665 29.7493L35.2956 29.6391C35.3248 29.5289 35.354 29.426 35.3686 29.3158L35.3904 29.1982C35.4196 29.0513 35.4415 28.9043 35.4634 28.75C35.478 28.5884 35.4926 28.4341 35.5071 28.2724C35.5436 27.6332 35.4853 27.0233 35.3831 26.3032C35.3029 25.7374 35.1789 25.1423 34.9747 24.4295C34.9674 24.4075 34.9602 24.3928 34.9602 24.3708C35.1935 24.2826 35.4196 24.1724 35.6238 24.0475C35.9593 23.8491 36.2437 23.6507 36.4917 23.4376C36.747 23.2245 36.9804 22.9747 37.2356 22.6514C37.4544 22.3795 37.6149 22.0856 37.7462 21.8284C37.8483 21.6301 37.9358 21.4096 38.0087 21.1671C38.0525 21.0128 38.0962 20.8512 38.1327 20.6234C38.1473 20.5573 38.1546 20.4911 38.1619 20.4324C38.1983 20.0429 38.1983 19.7196 38.1692 19.4037C38.14 19.0951 38.0889 18.7791 38.016 18.4338C37.8701 17.7725 37.6295 17.1626 37.4107 16.6483C37.1554 16.0678 36.871 15.5094 36.5501 15.0024C36.1854 14.4219 35.8207 13.9149 35.4342 13.4447C35.0185 12.945 34.5809 12.4821 34.1287 12.0633C33.713 11.6812 33.2462 11.3212 32.6409 10.917C32.1304 10.579 31.5834 10.2557 30.9708 9.93243C30.4457 9.66056 29.8622 9.41809 29.1912 9.1903C28.564 8.97722 27.9295 8.83026 27.295 8.74209C26.5511 8.63922 25.9093 8.58779 25.3112 8.59514H25.1289C24.859 8.59514 24.5892 8.60249 24.3194 8.62453C23.9839 8.65392 23.6484 8.68331 23.3129 8.72005C22.7659 8.78618 22.1824 8.91109 21.4604 9.10948C21.3583 9.13887 21.2562 9.17561 21.1541 9.21235L21.0301 9.25644C20.8697 9.30787 20.7092 9.374 20.5561 9.44013C20.2716 9.56504 19.9726 9.70464 19.6882 9.88099C19.535 9.96916 19.3891 10.0647 19.2433 10.1676C19.112 10.2557 18.9807 10.3512 18.864 10.4541C18.7255 10.5717 18.5942 10.6892 18.4629 10.8215C18.3608 10.9244 18.266 11.0346 18.1639 11.1448C18.0326 11.2918 17.9232 11.4608 17.8138 11.6224C17.6607 11.8575 17.5367 12.1 17.4491 12.3425C17.42 12.416 17.3981 12.4821 17.3689 12.5556C17.3325 12.5482 17.2887 12.5409 17.2522 12.5409C16.9678 12.5041 16.6615 12.4821 16.2895 12.4747C15.9832 12.4747 15.6769 12.4748 15.3633 12.4968L15.2174 12.5041C14.9257 12.5262 14.6267 12.5482 14.3349 12.607C13.5983 12.7613 13.0149 12.945 12.446 13.2242C12.3147 13.2903 12.1835 13.3565 12.0522 13.4226C11.9136 13.5034 11.775 13.5843 11.6438 13.6724C11.3812 13.8414 11.1259 14.0251 10.878 14.2235C10.6665 14.3925 10.455 14.5909 10.1924 14.8554C9.92985 15.1273 9.74022 15.3404 9.57248 15.5535C9.21511 16.0237 8.8067 16.5821 8.54415 17.2141C8.42016 17.508 8.30346 17.8092 8.20865 18.1105C8.10655 18.4264 8.03362 18.735 7.97528 19.051C7.85858 19.6829 7.80024 20.3295 7.80024 20.9688C7.80024 21.5566 7.85858 22.1591 7.97528 22.8277C8.02633 23.1143 8.09926 23.4156 8.20136 23.7535C8.28159 24.0181 8.35451 24.2899 8.4785 24.5471C8.71188 25.0394 9.29534 25.2672 9.79128 25.0467C10.032 24.9365 10.2216 24.7308 10.3164 24.4736C10.4112 24.2238 10.3966 23.9519 10.2872 23.7168C10.2726 23.6801 10.258 23.6433 10.2435 23.6066C10.1486 23.3347 10.0611 23.0335 9.98091 22.6955C9.90798 22.3501 9.85692 21.9901 9.81316 21.608C9.79128 21.2774 9.78399 20.954 9.79128 20.6381C9.80587 20.3074 9.84963 19.9474 9.90797 19.5212C9.93715 19.3816 9.95902 19.242 9.99549 19.1024C10.032 18.9628 10.0684 18.8232 10.1122 18.6983C10.1997 18.4485 10.2945 18.206 10.382 17.9782C10.4841 17.7651 10.5935 17.5667 10.7102 17.383C10.9071 17.0965 11.1113 16.8173 11.3156 16.5674C11.5052 16.3617 11.6948 16.1707 11.8771 15.987C12.0741 15.818 12.271 15.6563 12.4679 15.5167C12.6794 15.3698 12.8982 15.2375 13.1024 15.1199C13.3358 15.0097 13.5765 14.8995 13.7953 14.8113C14.0286 14.7305 14.2547 14.6644 14.4735 14.6056C14.7288 14.5542 14.9768 14.5174 15.2612 14.488C15.4654 14.4733 15.6696 14.4586 15.8738 14.4513C16.0926 14.4439 16.3114 14.4513 16.5229 14.4586C16.6907 14.466 16.8584 14.4807 17.0261 14.5027C17.0261 14.7673 17.0407 15.0318 17.0699 15.2963C17.1137 15.6196 17.1866 15.9502 17.3033 16.2735C17.4783 16.7511 17.6825 17.2581 18.0399 17.677C18.3535 18.0443 18.689 18.3089 19.0682 18.4999C19.4475 18.6836 19.8559 18.7791 20.2206 18.7571C20.6363 18.7277 20.9864 18.6175 21.2781 18.4191C21.5917 18.206 21.8324 17.8974 21.9418 17.5814C22.0293 17.339 22.073 17.1332 22.0803 16.9275C22.0876 16.7511 22.0803 16.5895 22.0585 16.4278C22.0293 16.2294 21.9855 16.0458 21.9272 15.8841C21.8105 15.5461 21.65 15.2302 21.4458 14.9289C21.0301 14.319 20.4613 13.8782 20.0091 13.5549C19.7684 13.3859 19.5131 13.2463 19.2798 13.1287C19.3089 13.0552 19.3308 12.9891 19.36 12.923C19.3891 12.8568 19.4256 12.7907 19.4475 12.7466C19.5204 12.6364 19.5934 12.5335 19.6517 12.4454C19.7538 12.3351 19.8486 12.2249 19.9361 12.1368C20.0674 12.0265 20.1914 11.9163 20.3081 11.8281C20.4685 11.7179 20.6363 11.6151 20.7822 11.5269C20.9353 11.4461 21.0885 11.3726 21.2416 11.2991C21.3729 11.2403 21.5042 11.1889 21.6282 11.1375C21.8251 11.0713 22.022 11.0052 22.2262 10.9464C22.3794 10.9023 22.5325 10.8656 22.693 10.8289C22.9191 10.7848 23.1451 10.7407 23.3639 10.7113C23.5609 10.6819 23.7651 10.6599 23.962 10.6378L23.9182 10.2704L24.0349 10.6305C24.3121 10.6084 24.5819 10.5864 24.8591 10.579C25.1727 10.5717 25.479 10.5717 25.778 10.579C26.0114 10.5937 26.2375 10.6084 26.4708 10.6305C26.6896 10.6525 26.9084 10.6819 27.1126 10.7113C27.3314 10.7554 27.5502 10.7921 27.769 10.8436C27.9733 10.895 28.1775 10.9464 28.3817 11.0052C28.5932 11.0787 28.8047 11.1522 29.0162 11.233C29.2204 11.3065 29.41 11.3946 29.6215 11.4828C29.9351 11.6371 30.2487 11.7914 30.555 11.9604C30.8687 12.1368 31.175 12.3278 31.474 12.5262L31.5907 12.5997C31.7584 12.7099 31.9262 12.8201 32.0793 12.9377C32.2689 13.0846 32.4586 13.2389 32.6336 13.3859C32.7868 13.5255 32.9326 13.6651 33.0785 13.8047C33.2244 13.9443 33.3556 14.0912 33.4869 14.2309L33.5453 14.297C33.6984 14.4733 33.8516 14.6423 33.9974 14.826C34.1579 15.0318 34.3183 15.2449 34.4642 15.4432L34.5298 15.5388C34.6465 15.7151 34.7632 15.8841 34.8726 16.0678C34.9966 16.2735 35.1133 16.4793 35.2227 16.685C35.3394 16.9128 35.4488 17.1406 35.5509 17.3683C35.653 17.6035 35.7478 17.846 35.8353 18.0737C35.9156 18.3089 35.9885 18.544 36.0468 18.7644C36.1052 19.0436 36.1562 19.3229 36.1781 19.5874C36.1854 19.727 36.1854 19.8592 36.1854 19.9695C36.1708 20.1017 36.1562 20.2266 36.1416 20.3295C36.1198 20.4103 36.0979 20.4985 36.0833 20.5646C36.0468 20.6748 36.0031 20.7777 35.9739 20.8512C35.9083 20.9761 35.8426 21.101 35.7843 21.1965C35.704 21.3141 35.6165 21.4243 35.5436 21.5198C35.4488 21.6227 35.3467 21.7256 35.2665 21.8064C35.1571 21.9019 35.0477 21.9901 34.9529 22.0636C34.8289 22.1444 34.7049 22.2252 34.6028 22.284C34.4861 22.3428 34.3621 22.4016 34.2454 22.453C34.012 21.9019 33.7568 21.4023 33.4942 20.9541C33.1077 20.3001 32.7357 19.8078 32.3419 19.389C32.2179 19.2641 32.1012 19.1392 31.9699 19.0216C31.8387 18.904 31.7074 18.7865 31.5688 18.6762C31.3573 18.4999 31.102 18.3309 30.7738 18.1399C30.1466 17.7798 29.5048 17.5374 28.863 17.4198C28.4838 17.3463 28.1483 17.3169 27.8347 17.3243C27.346 17.3316 26.8939 17.4198 26.4781 17.5667C26.0333 17.7284 25.6613 17.9782 25.3696 18.3015C25.1216 18.5807 24.9466 18.9261 24.8591 19.3229C24.7351 19.8886 24.8372 20.5058 25.1654 21.1745C25.6832 22.2252 26.6532 23.0996 28.0462 23.7903C28.5932 24.0622 29.1912 24.2826 29.8257 24.4589C30.4092 24.6206 31.0218 24.7234 31.6855 24.7749C31.7511 24.7822 31.8168 24.7822 31.9262 24.7822C32.0137 24.7896 32.1085 24.7896 32.2471 24.7896C32.4075 24.7896 32.568 24.7822 32.7284 24.7822C32.8159 24.7822 32.9035 24.7749 32.9837 24.7675C33.0858 25.1129 33.1806 25.4582 33.2608 25.8109C33.3484 26.2444 33.414 26.6926 33.4723 27.1629C33.4942 27.4495 33.5088 27.736 33.5088 28.0005C33.4942 28.2063 33.4796 28.412 33.4577 28.5957C33.4286 28.7574 33.3994 28.919 33.3629 29.0733C33.3265 29.2276 33.2827 29.3746 33.239 29.5068L33.1952 29.6317C33.166 29.7126 33.1368 29.7934 33.1004 29.8742L32.9107 30.2857C32.8743 30.3665 32.8305 30.4474 32.7868 30.5208L32.5899 30.8515C32.4659 31.0278 32.3492 31.2042 32.2179 31.3805C32.1012 31.5275 31.9845 31.6744 31.8751 31.8067L31.773 31.9169C31.7147 31.983 31.649 32.0565 31.5834 32.1226L31.2917 32.4092C31.1677 32.5268 31.0364 32.637 30.9051 32.7545C30.7811 32.8574 30.6572 32.9529 30.555 33.0411C30.2925 33.2174 30.0226 33.3864 29.7674 33.5334C29.6288 33.6069 29.4902 33.673 29.3444 33.7391C29.2204 33.7979 29.0891 33.842 28.9651 33.8934L28.812 33.9449C28.6588 33.9963 28.5057 34.0551 28.3452 34.0992C28.1483 34.158 27.9441 34.2094 27.7545 34.2608C27.5648 34.3049 27.3752 34.3417 27.1856 34.371C26.9887 34.4004 26.7918 34.4225 26.573 34.4445C26.2521 34.4592 25.9312 34.4813 25.6103 34.4886C25.3185 34.496 25.0268 34.4886 24.7497 34.4813C24.21 34.4445 23.7286 34.3931 23.3056 34.327C22.7148 34.2167 22.1897 34.0918 21.723 33.9522C21.4239 33.8494 21.1322 33.7391 20.8624 33.6216C20.7603 33.5701 20.6582 33.5187 20.5561 33.4673C20.7457 33.2101 20.928 32.9456 21.0958 32.6737C21.2781 32.3798 21.4312 32.0932 21.5625 31.7993C21.6792 31.5495 21.7813 31.2703 21.9053 30.9103C22.0001 30.6237 22.0876 30.3224 22.1533 30.0065C22.2189 29.6905 22.2845 29.3525 22.3137 29.0145C22.3575 28.4341 22.3794 27.7434 22.2335 27.0453C22.1679 26.7441 22.0803 26.3914 21.9199 26.0607C21.7594 25.7301 21.5771 25.4362 21.3729 25.179C20.9426 24.6279 20.3081 24.2679 19.6663 24.2165C19.4329 24.1944 19.1849 24.2091 18.9661 24.2532C18.813 24.2826 18.6452 24.3193 18.4848 24.3928C18.3535 24.4516 18.2295 24.5251 18.1055 24.6059C17.8357 24.7822 17.5731 25.0174 17.3106 25.3407C17.1064 25.5905 16.924 25.855 16.7563 26.1416C16.4573 26.6706 16.2312 27.2731 16.0853 27.9418C15.9468 28.5884 15.8811 29.235 15.903 29.8448C15.9249 30.5869 16.0707 31.2923 16.3187 31.8875C16.4281 32.1594 16.574 32.4753 16.749 32.7692C16.9459 33.0852 17.1793 33.3644 17.3543 33.5628C17.4054 33.6216 17.4564 33.673 17.5075 33.7318C17.4346 33.7832 17.3689 33.8347 17.3033 33.8861C16.997 34.0992 16.6834 34.2902 16.3552 34.4739C15.9905 34.6576 15.6113 34.8193 15.2101 34.9736C14.8747 35.0985 14.51 35.2013 14.1089 35.3042C13.7734 35.3777 13.4087 35.4291 13.0149 35.4732C12.6867 35.4953 12.2491 35.5246 11.8334 35.5099C11.5271 35.4879 11.2353 35.4512 10.9436 35.4071C10.754 35.3703 10.5644 35.3336 10.3747 35.2895C10.207 35.2454 10.0392 35.194 9.87879 35.1499C9.59436 35.0544 9.32452 34.9442 9.06926 34.8266C8.7046 34.6429 8.33993 34.4372 8.00444 34.2241C7.74189 34.0477 7.49392 33.8641 7.25324 33.673C7.12197 33.5554 6.98339 33.4379 6.85941 33.313C6.70625 33.1587 6.56038 33.0044 6.41452 32.8501C5.99151 32.3798 5.61957 31.9169 5.28408 31.4613C5.08716 31.1674 4.89754 30.8515 4.69333 30.4767C4.56935 30.2269 4.44536 29.9697 4.32867 29.7126C4.21198 29.4554 4.10257 29.1909 4.00047 28.9337C3.78167 28.3385 3.59205 27.6919 3.40243 26.9131C3.32221 26.5604 3.24927 26.2077 3.19092 25.855C3.13258 25.4582 3.08153 25.0614 3.03777 24.6647C3.0013 24.1871 2.97213 23.7095 2.95754 23.2319C2.94296 22.7836 2.95755 22.3354 2.97213 21.8946C3.01589 20.9247 3.10341 20.065 3.22739 19.2788C3.37325 18.5073 3.56288 17.7284 3.81814 16.8981C3.97859 16.4205 4.13905 15.9429 4.32867 15.4726C4.5183 14.9877 4.7225 14.5101 4.934 14.0472C5.12362 13.6504 5.32054 13.2463 5.53205 12.8568C5.73626 12.4747 5.96235 12.1 6.18114 11.74C6.45099 11.3211 6.72813 10.9097 7.01257 10.5056C7.3043 10.0867 7.62519 9.68995 7.93151 9.31522C8.19406 9.00661 8.45662 8.70535 8.73377 8.41144C9.01091 8.11019 9.30263 7.82362 9.58707 7.55175C9.8715 7.29458 10.1559 7.03741 10.4623 6.79494C10.7613 6.55246 11.0749 6.32468 11.3739 6.10425L11.4833 6.03077C11.7094 5.87647 11.9282 5.72951 12.1616 5.58991C12.4314 5.42826 12.7013 5.27396 12.9638 5.13435C13.365 4.92861 13.7661 4.73757 14.1672 4.54653C14.5027 4.39222 14.8528 4.25996 15.1955 4.12771L15.3341 4.07627C15.655 3.96605 15.9686 3.84849 16.2968 3.75297C16.6396 3.6501 16.9897 3.56193 17.3325 3.48111C17.894 3.36354 18.3608 3.27537 18.7911 3.21659C19.2579 3.15046 19.7319 3.09902 20.1987 3.05493C21.2343 2.97411 22.3356 2.95207 23.663 3.0035C24.2756 3.03289 24.932 3.06963 25.5811 3.1431C26.2448 3.21658 26.8574 3.30475 27.4554 3.40762C28.1045 3.53253 28.7463 3.69419 29.4246 3.89993L29.7455 4.00279C30.329 4.19384 30.9051 4.42162 31.5032 4.68614C32.1012 4.98005 32.7357 5.32539 33.4432 5.73686C34.1068 6.1263 34.7122 6.49368 35.281 6.86107C36.1854 7.46358 37.1262 8.17632 38.1546 9.036C38.5484 9.374 38.9349 9.71199 39.2923 10.0647C39.6716 10.4468 40.0435 10.8362 40.4009 11.233L40.8749 11.762C41.5751 12.5482 42.2898 13.4373 43.1212 14.5542C43.3619 14.8775 43.6026 15.2008 43.836 15.5314L44.1423 15.9576C44.4851 16.4205 44.8206 16.8834 45.1488 17.3537L46.2792 18.9775C46.9575 19.9474 47.6139 20.9247 48.2775 21.9093C48.8537 22.7763 49.4663 23.7095 49.9914 24.6867C50.0498 24.7969 50.1008 24.9071 50.1446 25.0027C50.1592 25.0467 50.1738 25.0835 50.1811 25.1055L50.203 25.2158L50.5676 25.1643L50.1957 25.2892L50.1227 25.4509C50.079 25.517 50.0352 25.5758 50.0133 25.6125C49.9623 25.6713 49.9039 25.7227 49.8602 25.7668C49.8091 25.8109 49.7508 25.8624 49.7143 25.8917C49.6049 25.9652 49.4882 26.0387 49.3788 26.0975C48.7881 26.4061 48.1463 26.6559 47.5263 26.9057C47.3148 26.9939 47.096 27.0747 46.8845 27.1629L46.746 27.2217C46.3886 27.3686 46.0239 27.5156 45.6812 27.7213C45.4697 27.8462 45.3092 27.9712 45.1706 28.1181C44.9373 28.3753 44.7841 28.728 44.7403 29.1174C44.6674 29.7567 44.7695 30.4106 44.8716 30.969C44.981 31.5348 45.1123 32.1226 45.2654 32.7178L45.4113 33.2909C45.652 34.2241 45.9 35.1646 46.1188 36.1051C46.4032 37.391 46.5855 38.4417 46.6803 39.419C46.7314 40.0068 46.746 40.5211 46.7314 40.9914C46.7168 41.2706 46.6876 41.5498 46.6439 41.8143C46.6001 42.0421 46.5418 42.2625 46.4834 42.4756C46.4032 42.7181 46.3084 42.9606 46.2063 43.181C46.1261 43.3353 46.0458 43.4823 45.9583 43.6219C45.8562 43.7762 45.7468 43.9158 45.6447 44.048C45.5353 44.1729 45.4259 44.2905 45.3165 44.3934C45.1415 44.5477 44.9591 44.6873 44.7841 44.8195C44.5288 44.9959 44.259 45.1502 44.0037 45.2972C43.6974 45.4515 43.413 45.5764 43.1431 45.6866C42.8441 45.7895 42.5378 45.8776 42.2388 45.9511C41.7355 46.0613 41.2615 46.1348 40.7947 46.1862C40.1748 46.2377 39.6059 46.2671 39.0371 46.2671C38.4317 46.2671 37.841 46.2524 37.2429 46.2303C36.1343 46.1789 35.0185 46.1054 33.9099 46.0319L33.2025 45.9805C32.3565 45.9217 31.5105 45.8629 30.6353 45.8262C30.3727 45.8188 30.1102 45.8115 29.8476 45.8115C29.6142 45.8115 29.3152 45.8335 29.0454 45.9658C28.7026 46.1348 28.4327 46.392 28.2358 46.7373C28.0754 47.0165 27.9441 47.3325 27.8566 47.6705C27.7763 47.9644 27.7034 48.2583 27.6451 48.5595C27.419 49.7646 27.2731 50.9843 27.1418 52.1232C27.0106 53.2768 26.9084 54.4378 26.8282 55.5693L26.7042 57.4871C26.6751 57.95 26.6459 58.4202 26.5875 58.8831C26.5584 59.1403 26.6313 59.4048 26.7917 59.6106C26.9595 59.8237 27.2002 59.9633 27.4627 59.9927L27.5721 60C28.0681 60 28.4911 59.6179 28.5567 59.1109C28.6078 58.6921 28.6369 58.2733 28.6661 57.8545L28.7755 56.1718C28.863 54.8198 28.9505 53.7912 29.0599 52.8359L29.0818 52.6449C29.1985 51.5721 29.3225 50.4626 29.5048 49.3898C29.5778 48.9857 29.6726 48.5081 29.8038 48.0526C29.833 47.9791 29.8622 47.9056 29.8841 47.8542C29.8914 47.8395 29.9059 47.8174 29.9132 47.8027C30.1393 47.7954 30.3654 47.8101 30.5988 47.8174L30.7447 47.8248C31.4521 47.8542 32.1595 47.9056 32.867 47.957L33.713 48.0158C34.8872 48.0966 36.0614 48.1775 37.2356 48.2216C38.3588 48.2656 39.5549 48.295 40.7655 48.1922C42.1877 48.0672 43.3692 47.7954 44.383 47.3398C44.9446 47.09 45.4769 46.7887 45.9583 46.4361C46.2573 46.223 46.498 46.0319 46.6949 45.8335C46.9283 45.6131 47.1398 45.378 47.344 45.1135C47.6941 44.6579 47.9931 44.1215 48.2192 43.519C48.438 42.9385 48.5912 42.3433 48.6568 41.7629C48.7808 40.7562 48.7443 39.6688 48.5401 38.2433C48.3578 36.9795 48.0733 35.7377 47.8473 34.7972C47.7233 34.2829 47.592 33.7759 47.4607 33.2689C47.3003 32.6664 47.1471 32.0639 47.0085 31.4613C46.9064 30.9911 46.7897 30.4473 46.7314 29.9257C46.7168 29.764 46.7095 29.6024 46.7095 29.4554C46.7095 29.448 46.7095 29.4407 46.7095 29.4334C46.7241 29.426 46.7387 29.4187 46.7533 29.4113C47.0377 29.2644 47.3367 29.1468 47.6357 29.0219L49.0142 28.4635C49.3934 28.3092 49.7872 28.1475 50.1665 27.9491C50.5749 27.736 51.049 27.4568 51.4428 27.0233C51.9898 26.4134 52.2524 25.7374 52.2013 25.0614C52.143 24.4222 51.822 23.8491 51.5084 23.3053ZM19.2798 26.2738L19.3819 26.2591C19.4329 26.2591 19.484 26.2518 19.5204 26.2518C19.5277 26.2518 19.535 26.2518 19.5423 26.2518C19.5788 26.2665 19.6152 26.2738 19.6152 26.2738L19.783 26.384C19.8486 26.4649 19.9143 26.553 19.9653 26.6192C20.0091 26.6926 20.0601 26.7735 20.0893 26.8323C20.1258 26.9131 20.1622 26.9939 20.1914 27.0527C20.2352 27.1703 20.2716 27.2878 20.2935 27.3907C20.33 27.5744 20.3591 27.7654 20.381 27.9344C20.3956 28.1255 20.3956 28.3092 20.3883 28.4855C20.3737 28.75 20.3519 29.0145 20.3154 29.257C20.2425 29.6244 20.1622 29.9624 20.0674 30.2784C19.9653 30.5796 19.8486 30.8662 19.7319 31.138C19.6225 31.3511 19.4985 31.5642 19.3819 31.7626C19.2506 31.9683 19.112 32.1667 18.9588 32.3578C18.937 32.3357 18.9078 32.3063 18.8859 32.2843C18.7619 32.1373 18.6379 31.9904 18.5431 31.8655C18.4775 31.7552 18.4119 31.645 18.3608 31.5495C18.3025 31.4172 18.2368 31.285 18.1931 31.1748C18.1347 30.9984 18.0764 30.8221 18.0326 30.6678C17.9961 30.4767 17.967 30.293 17.9451 30.1167C17.9305 29.911 17.9232 29.7126 17.9305 29.5215C17.9451 29.2423 17.9743 28.9631 18.0107 28.7059C18.0545 28.4708 18.1128 28.2357 18.1712 28.0152C18.2368 27.8242 18.3097 27.6332 18.3827 27.4642C18.4629 27.3025 18.5431 27.1482 18.6306 27.0086C18.7109 26.8837 18.8057 26.7661 18.8859 26.6633C18.9515 26.5898 19.0172 26.5163 19.0755 26.4649C19.1266 26.4208 19.1703 26.384 19.1922 26.362L19.2798 26.2738ZM20.0747 16.7732C20.0528 16.7732 20.031 16.7658 20.0091 16.7585L19.9434 16.7364C19.8924 16.7071 19.8413 16.685 19.8122 16.663C19.783 16.6409 19.7538 16.6189 19.7392 16.6115C19.6809 16.5601 19.6298 16.5087 19.5934 16.4719C19.5496 16.4205 19.5058 16.3617 19.4767 16.325C19.4329 16.2588 19.3891 16.1927 19.36 16.1413C19.3089 16.0311 19.2579 15.9208 19.2214 15.8253C19.1704 15.6784 19.1193 15.5241 19.0828 15.3918C19.1703 15.4579 19.2506 15.5241 19.3235 15.5829C19.4183 15.671 19.5131 15.7592 19.5861 15.84C19.659 15.9208 19.7246 16.0017 19.7757 16.0678C19.8267 16.1413 19.8705 16.2148 19.8997 16.2662C19.9361 16.3397 19.9726 16.4205 19.9945 16.4719C20.0164 16.5381 20.0382 16.6115 20.0528 16.6483C20.0674 16.6997 20.0747 16.7511 20.0747 16.7732ZM20.1039 17.1479L20.1185 16.9054H20.1258L20.1039 17.1479ZM26.5365 19.5139L26.923 19.6241C26.9668 19.5947 27.0178 19.5653 27.047 19.5506C27.0835 19.5359 27.1126 19.5212 27.1345 19.5065C27.222 19.4772 27.3023 19.4478 27.3679 19.4331L27.5867 19.3963C27.718 19.3816 27.8493 19.3816 27.9514 19.3743C28.0972 19.3816 28.2431 19.3963 28.3744 19.411C28.4838 19.4331 28.5859 19.4478 28.6953 19.4772C28.812 19.5066 28.9214 19.5359 29.0089 19.5653C29.1693 19.6241 29.3298 19.6902 29.4757 19.749C29.6069 19.8152 29.7382 19.8813 29.8622 19.9548C29.9351 19.9988 30.0081 20.0429 30.1029 20.1017C30.256 20.2119 30.4019 20.3221 30.5259 20.425C30.6717 20.5646 30.8176 20.7042 30.9416 20.8365C31.0437 20.9541 31.1458 21.0716 31.2406 21.1965C31.3354 21.3141 31.4229 21.439 31.5032 21.5492C31.6928 21.8358 31.8605 22.1297 32.021 22.4163C32.0939 22.5559 32.1596 22.6955 32.2252 22.8424C32.1887 22.8424 32.1523 22.8424 32.1158 22.8424L32.021 22.8351C31.9043 22.8277 31.7949 22.8204 31.6782 22.813C31.4667 22.7983 31.2552 22.7616 31.0583 22.7322C30.6936 22.6587 30.3363 22.5706 29.9862 22.4603C29.6434 22.3428 29.3152 22.2105 29.0016 22.0709C28.7026 21.924 28.4327 21.7697 28.1848 21.6153C28.0462 21.5198 27.9149 21.4243 27.8055 21.3361C27.6523 21.2039 27.5065 21.0643 27.3825 20.932C27.3023 20.8365 27.2221 20.7336 27.1637 20.6528C27.1054 20.5573 27.0397 20.4618 26.996 20.3883C26.9522 20.3001 26.9157 20.2119 26.8866 20.1458C26.872 20.0944 26.8501 20.0429 26.8428 20.0135C26.8355 19.9695 26.8282 19.9254 26.8209 19.918V19.7931L26.4636 19.7417L26.8647 19.7049L26.5365 19.5139ZM17.2012 14.2088V14.1868C17.2085 14.1868 17.2085 14.1868 17.2158 14.1868V14.2088H17.2012Z" fill="#0A7D71" stroke="#0A7D71"/>
<path d="M86.416 41H72.304V21.8H76.176V37.608H86.416V41ZM91.8365 25.672C91.4098 26.0987 90.8872 26.312 90.2685 26.312C89.6498 26.312 89.1272 26.0987 88.7005 25.672C88.2952 25.2453 88.0925 24.7227 88.0925 24.104C88.0925 23.4853 88.3058 22.9627 88.7325 22.536C89.1592 22.088 89.6712 21.864 90.2685 21.864C90.8872 21.864 91.4098 22.088 91.8365 22.536C92.2845 22.9627 92.5085 23.4853 92.5085 24.104C92.5085 24.7227 92.2845 25.2453 91.8365 25.672ZM88.3485 41V29.928H92.1885V41H88.3485ZM100.504 48.616C98.4555 48.616 96.8875 48.232 95.7995 47.464C94.7115 46.696 94.1675 45.736 94.1675 44.584C94.1675 43.24 94.8288 42.28 96.1515 41.704V41.48C94.9995 40.968 94.4235 40.1787 94.4235 39.112C94.4235 37.9813 95.0528 37.096 96.3115 36.456C95.7355 35.752 95.4475 34.9413 95.4475 34.024C95.4475 32.7653 95.9062 31.7307 96.8235 30.92C97.7408 30.088 98.8822 29.672 100.248 29.672L106.36 30.024V32.648H104.632V32.808C104.93 33.064 105.08 33.544 105.08 34.248C105.08 35.336 104.642 36.264 103.768 37.032C102.893 37.7787 101.73 38.152 100.28 38.152C99.6182 38.152 98.9995 38.056 98.4235 37.864C97.9542 38.0773 97.7195 38.3547 97.7195 38.696C97.7195 39.336 98.6475 39.656 100.504 39.656C104.813 39.656 106.968 41.096 106.968 43.976C106.968 45.32 106.413 46.4293 105.304 47.304C104.194 48.1787 102.594 48.616 100.504 48.616ZM100.504 42.504C99.5862 42.504 98.9035 42.6747 98.4555 43.016C98.0288 43.3573 97.8155 43.7627 97.8155 44.232C97.8155 44.7013 98.0288 45.096 98.4555 45.416C98.8822 45.736 99.5648 45.896 100.504 45.896C101.442 45.896 102.125 45.736 102.552 45.416C103 45.096 103.224 44.7013 103.224 44.232C103.224 43.7413 103 43.3253 102.552 42.984C102.125 42.664 101.442 42.504 100.504 42.504ZM100.28 32.392C99.7462 32.392 99.3195 32.5413 98.9995 32.84C98.7008 33.1387 98.5515 33.5227 98.5515 33.992C98.5515 34.44 98.7008 34.8133 98.9995 35.112C99.3195 35.4107 99.7462 35.56 100.28 35.56C100.813 35.56 101.24 35.4107 101.56 35.112C101.88 34.8133 102.04 34.44 102.04 33.992C102.04 33.5227 101.88 33.1387 101.56 32.84C101.261 32.5413 100.834 32.392 100.28 32.392ZM108.473 41V19.624H112.377V30.92H112.441L112.473 30.888C113.305 30.056 114.371 29.64 115.673 29.64C117.102 29.64 118.243 30.0773 119.097 30.952C119.971 31.8053 120.409 32.9787 120.409 34.472V40.968H116.569V35.016C116.569 34.3547 116.387 33.8213 116.025 33.416C115.662 33.0107 115.161 32.808 114.521 32.808C113.902 32.808 113.401 32.9893 113.017 33.352C112.633 33.7147 112.419 34.1627 112.377 34.696V41H108.473ZM122.2 29.928H124.184V26.632H128.024V29.928H131.544V32.968H128.024V36.424C128.024 37.4907 128.504 38.024 129.464 38.024C129.699 38.024 129.923 37.992 130.136 37.928C130.371 37.864 130.542 37.8 130.648 37.736L130.808 37.64L132.056 40.232C131.352 40.9147 130.275 41.256 128.824 41.256C127.374 41.256 126.232 40.84 125.4 40.008C124.59 39.176 124.184 38.024 124.184 36.552V32.968H122.2V29.928ZM137.907 34.888V41H134.067V29.928H136.435L137.011 31.432H137.203C138.035 30.2587 139.294 29.672 140.979 29.672C142.814 29.672 144.19 30.28 145.107 31.496H145.171C145.47 30.9627 145.961 30.5253 146.643 30.184C147.326 29.8427 148.126 29.672 149.043 29.672C150.558 29.672 151.753 30.0987 152.627 30.952C153.523 31.8053 153.971 32.9787 153.971 34.472V41H150.131V35.016C150.131 34.3547 149.95 33.832 149.587 33.448C149.246 33.0427 148.755 32.84 148.115 32.84C147.475 32.84 146.963 33.0213 146.579 33.384C146.195 33.7467 145.982 34.1947 145.939 34.728V41H142.099V34.92C142.099 34.28 141.918 33.7787 141.555 33.416C141.193 33.032 140.691 32.84 140.051 32.84C139.39 32.84 138.867 33.0427 138.483 33.448C138.099 33.832 137.907 34.312 137.907 34.888ZM160.368 25.672C159.941 26.0987 159.418 26.312 158.8 26.312C158.181 26.312 157.658 26.0987 157.232 25.672C156.826 25.2453 156.624 24.7227 156.624 24.104C156.624 23.4853 156.837 22.9627 157.264 22.536C157.69 22.088 158.202 21.864 158.8 21.864C159.418 21.864 159.941 22.088 160.368 22.536C160.816 22.9627 161.04 23.4853 161.04 24.104C161.04 24.7227 160.816 25.2453 160.368 25.672ZM156.88 41V29.928H160.72V41H156.88ZM163.755 41V29.928H166.123L166.699 31.432H166.891C167.701 30.2587 168.96 29.672 170.667 29.672C172.181 29.672 173.387 30.0987 174.283 30.952C175.179 31.8053 175.627 32.9787 175.627 34.472V41H171.787V35.016C171.787 34.3547 171.605 33.832 171.243 33.448C170.88 33.0427 170.379 32.84 169.739 32.84C169.099 32.84 168.587 33.0213 168.203 33.384C167.84 33.7467 167.637 34.1947 167.595 34.728V41H163.755ZM186.377 30.92H186.537V19.624H190.377V41H187.849L187.241 39.592H187.081C187.017 39.72 186.899 39.88 186.729 40.072C186.579 40.2427 186.185 40.488 185.545 40.808C184.926 41.1067 184.201 41.256 183.369 41.256C181.769 41.256 180.446 40.7333 179.401 39.688C178.377 38.6427 177.865 37.2453 177.865 35.496C177.865 33.7893 178.366 32.392 179.369 31.304C180.393 30.216 181.683 29.672 183.241 29.672C183.945 29.672 184.553 29.7787 185.065 29.992C185.598 30.2053 185.95 30.4187 186.121 30.632L186.377 30.92ZM186.729 35.432C186.729 34.6427 186.494 34.0133 186.025 33.544C185.577 33.0747 184.969 32.84 184.201 32.84C183.475 32.84 182.878 33.0853 182.409 33.576C181.961 34.0453 181.737 34.664 181.737 35.432C181.737 36.2 181.961 36.84 182.409 37.352C182.878 37.8427 183.475 38.088 184.201 38.088C184.969 38.088 185.577 37.8533 186.025 37.384C186.494 36.8933 186.729 36.2427 186.729 35.432ZM192.802 40.104L193.794 37.48C195.01 38.184 196.237 38.536 197.474 38.536C198.498 38.536 199.01 38.2373 199.01 37.64C199.01 37.2987 198.69 37.0213 198.05 36.808C197.41 36.5947 196.706 36.424 195.938 36.296C195.192 36.1467 194.498 35.816 193.858 35.304C193.218 34.7707 192.898 34.0667 192.898 33.192C192.898 32.1253 193.304 31.272 194.114 30.632C194.946 29.992 196.205 29.672 197.89 29.672C198.914 29.672 199.853 29.7467 200.706 29.896C201.56 30.0453 202.157 30.2053 202.498 30.376L203.01 30.6L201.922 33.352C201.048 32.7333 199.874 32.424 198.402 32.424C197.464 32.424 196.994 32.6907 196.994 33.224C196.994 33.544 197.314 33.8107 197.954 34.024C198.616 34.2373 199.341 34.4187 200.13 34.568C200.92 34.7173 201.634 35.0587 202.274 35.592C202.936 36.1253 203.266 36.8293 203.266 37.704C203.266 38.7707 202.818 39.6347 201.922 40.296C201.026 40.936 199.693 41.256 197.922 41.256C196.898 41.256 195.96 41.16 195.106 40.968C194.253 40.776 193.656 40.584 193.314 40.392L192.802 40.104Z" fill="#1A1423"/>
<path d="M214.525 37.64L215.741 40.04C215.634 40.1253 215.474 40.2427 215.261 40.392C215.069 40.5413 214.61 40.7333 213.885 40.968C213.16 41.2027 212.37 41.32 211.517 41.32C209.512 41.32 207.922 40.7653 206.749 39.656C205.576 38.5467 204.989 37.1493 204.989 35.464C204.989 33.7787 205.544 32.392 206.653 31.304C207.784 30.216 209.234 29.672 211.005 29.672C212.754 29.672 214.13 30.1947 215.133 31.24C216.157 32.2853 216.669 33.6613 216.669 35.368L216.637 36.168H208.701C208.978 37.64 209.97 38.376 211.677 38.376C212.21 38.376 212.712 38.312 213.181 38.184C213.672 38.056 214.024 37.928 214.237 37.8L214.525 37.64ZM210.973 32.456C209.757 32.456 209.01 33.064 208.733 34.28H213.053C212.989 33.7467 212.765 33.3093 212.381 32.968C212.018 32.6267 211.549 32.456 210.973 32.456ZM217.919 29.928H219.903V26.632H223.743V29.928H227.263V32.968H223.743V36.424C223.743 37.4907 224.223 38.024 225.183 38.024C225.418 38.024 225.642 37.992 225.855 37.928C226.09 37.864 226.26 37.8 226.367 37.736L226.527 37.64L227.775 40.232C227.071 40.9147 225.994 41.256 224.543 41.256C223.092 41.256 221.951 40.84 221.119 40.008C220.308 39.176 219.903 38.024 219.903 36.552V32.968H217.919V29.928ZM228.794 29.928H230.778V26.632H234.618V29.928H238.138V32.968H234.618V36.424C234.618 37.4907 235.098 38.024 236.058 38.024C236.293 38.024 236.517 37.992 236.73 37.928C236.965 37.864 237.135 37.8 237.242 37.736L237.402 37.64L238.65 40.232C237.946 40.9147 236.869 41.256 235.418 41.256C233.967 41.256 232.826 40.84 231.994 40.008C231.183 39.176 230.778 38.024 230.778 36.552V32.968H228.794V29.928Z" fill="#0A7D71"/>
</svg>
